<?xml version="1.0" encoding="utf-8"?>
<!-- Generator: Adobe Illustrator 18.0.0, SVG Export Plug-In . SVG Version: 6.00 Build 0)  -->
<!DOCTYPE svg PUBLIC "-//W3C//DTD SVG 1.1//EN" "http://www.w3.org/Graphics/SVG/1.1/DTD/svg11.dtd">
<svg version="1.1" id="Layer_1" xmlns="http://www.w3.org/2000/svg" xmlns:xlink="http://www.w3.org/1999/xlink" x="0px" y="0px"
	 viewBox="0 0 270 60" enable-background="new 0 0 270 60" xml:space="preserve">
<g>
	<path fill="#FFFFFF" d="M105.9,20.3c1.5,0.6,2.6,1.6,3.3,2.8c0.8,1.2,1.2,2.6,1.2,4.3c0,1.6-0.4,3.1-1.2,4.3s-1.9,2.1-3.3,2.8
		c-1.5,0.6-3.2,1-5.1,1h-5.1v6.5h-4.2V19.4h9.3C102.7,19.4,104.4,19.7,105.9,20.3z M104.7,30.7c0.9-0.8,1.4-1.9,1.4-3.3
		s-0.5-2.5-1.4-3.3c-0.9-0.8-2.3-1.2-4.2-1.2h-4.9v9h4.9C102.4,31.9,103.8,31.5,104.7,30.7z"/>
	<path fill="#FFFFFF" d="M129.3,41.9l-4.6-6.6c-0.2,0-0.5,0-0.9,0h-5.1v6.6h-4.2V19.4h9.3c2,0,3.7,0.3,5.1,1
		c1.5,0.6,2.6,1.6,3.3,2.8c0.8,1.2,1.2,2.6,1.2,4.3c0,1.7-0.4,3.2-1.2,4.4c-0.8,1.2-2,2.1-3.6,2.7l5.2,7.4H129.3z M127.8,24.1
		c-0.9-0.8-2.3-1.2-4.2-1.2h-4.9v9h4.9c1.8,0,3.2-0.4,4.2-1.2c0.9-0.8,1.4-1.9,1.4-3.3S128.7,24.8,127.8,24.1z"/>
	<path fill="#FFFFFF" d="M142.4,40.7c-1.8-1-3.3-2.4-4.4-4.2c-1.1-1.8-1.6-3.8-1.6-5.9c0-2.2,0.5-4.2,1.6-5.9
		c1.1-1.8,2.5-3.2,4.4-4.2c1.8-1,3.9-1.5,6.2-1.5c2.3,0,4.4,0.5,6.2,1.5c1.8,1,3.3,2.4,4.4,4.1c1.1,1.8,1.6,3.8,1.6,6
		c0,2.2-0.5,4.2-1.6,6c-1.1,1.8-2.5,3.1-4.4,4.1c-1.8,1-3.9,1.5-6.2,1.5C146.4,42.2,144.3,41.7,142.4,40.7z M152.7,37.6
		c1.2-0.7,2.1-1.6,2.8-2.8c0.7-1.2,1-2.6,1-4.1c0-1.5-0.3-2.9-1-4.1c-0.7-1.2-1.6-2.2-2.8-2.8s-2.6-1-4.1-1c-1.5,0-2.9,0.3-4.1,1
		c-1.2,0.7-2.1,1.6-2.8,2.8c-0.7,1.2-1,2.6-1,4.1c0,1.5,0.3,2.9,1,4.1c0.7,1.2,1.6,2.2,2.8,2.8c1.2,0.7,2.6,1,4.1,1
		C150.2,38.6,151.5,38.2,152.7,37.6z"/>
	<path fill="#FFFFFF" d="M180.7,30.4h4v9c-1.2,0.9-2.5,1.6-4.1,2.1c-1.5,0.5-3.1,0.7-4.8,0.7c-2.3,0-4.4-0.5-6.2-1.5
		c-1.8-1-3.3-2.4-4.4-4.1c-1.1-1.8-1.6-3.8-1.6-6c0-2.2,0.5-4.2,1.6-6c1.1-1.8,2.5-3.1,4.4-4.1c1.9-1,3.9-1.5,6.3-1.5
		c1.9,0,3.6,0.3,5.2,0.9s2.8,1.5,3.9,2.7l-2.6,2.6c-1.7-1.7-3.8-2.6-6.2-2.6c-1.6,0-3,0.3-4.2,1c-1.2,0.7-2.2,1.6-2.9,2.8
		c-0.7,1.2-1,2.6-1,4.1c0,1.5,0.3,2.9,1,4.1c0.7,1.2,1.7,2.1,2.9,2.8c1.2,0.7,2.6,1,4.2,1c1.8,0,3.3-0.4,4.6-1.2V30.4z"/>
	<path fill="#FFFFFF" d="M204.9,41.9l-4.6-6.6c-0.2,0-0.5,0-0.9,0h-5.1v6.6h-4.2V19.4h9.3c2,0,3.7,0.3,5.1,1
		c1.5,0.6,2.6,1.6,3.3,2.8c0.8,1.2,1.2,2.6,1.2,4.3c0,1.7-0.4,3.2-1.2,4.4c-0.8,1.2-2,2.1-3.6,2.7l5.2,7.4H204.9z M203.4,24.1
		c-0.9-0.8-2.3-1.2-4.2-1.2h-4.9v9h4.9c1.8,0,3.2-0.4,4.2-1.2c0.9-0.8,1.4-1.9,1.4-3.3S204.4,24.8,203.4,24.1z"/>
	<path fill="#FFFFFF" d="M228.4,36.7h-11.3l-2.2,5.2h-4.3l10.2-22.6h4.1L235,41.9h-4.4L228.4,36.7z M227,33.4l-4.3-9.9l-4.2,9.9H227
		z"/>
	<path fill="#FFFFFF" d="M237.9,19.4h9.9c2.4,0,4.5,0.5,6.4,1.4c1.9,0.9,3.3,2.3,4.4,4c1,1.7,1.5,3.7,1.5,5.9c0,2.2-0.5,4.2-1.5,5.9
		c-1,1.7-2.5,3-4.4,4c-1.9,0.9-4,1.4-6.4,1.4h-9.9V19.4z M247.5,38.4c1.7,0,3.1-0.3,4.4-1c1.3-0.6,2.2-1.5,2.9-2.7
		c0.7-1.2,1-2.5,1-4.1s-0.3-2.9-1-4.1s-1.6-2.1-2.9-2.7c-1.3-0.6-2.7-1-4.4-1h-5.5v15.5H247.5z"/>
</g>
<g>
	<path fill="#FFFFFF" d="M96.9,48.9c0.6,0.5,0.9,1.1,0.9,2s-0.3,1.5-0.9,2c-0.6,0.5-1.4,0.7-2.3,0.7h-1.9v2.3h-1.1v-7.7h3
		C95.5,48.2,96.3,48.5,96.9,48.9z M96.1,52.2c0.4-0.3,0.5-0.7,0.5-1.3c0-0.6-0.2-1-0.5-1.3c-0.4-0.3-0.9-0.4-1.6-0.4h-1.9v3.4h1.9
		C95.2,52.6,95.7,52.5,96.1,52.2z"/>
	<path fill="#FFFFFF" d="M104.5,55.9l-1.7-2.4c-0.2,0-0.4,0-0.5,0h-1.9v2.3h-1.1v-7.7h3c1,0,1.8,0.2,2.3,0.7c0.6,0.5,0.9,1.1,0.9,2
		c0,0.6-0.1,1.1-0.4,1.5c-0.3,0.4-0.7,0.7-1.3,0.9l1.8,2.6H104.5z M103.9,52.2c0.4-0.3,0.5-0.7,0.5-1.3c0-0.6-0.2-1-0.5-1.3
		c-0.4-0.3-0.9-0.4-1.6-0.4h-1.9v3.5h1.9C103,52.6,103.5,52.5,103.9,52.2z"/>
	<path fill="#FFFFFF" d="M108.7,55.5c-0.6-0.3-1.1-0.8-1.5-1.4c-0.4-0.6-0.5-1.3-0.5-2s0.2-1.4,0.5-2c0.4-0.6,0.8-1.1,1.5-1.4
		c0.6-0.3,1.3-0.5,2.1-0.5c0.8,0,1.5,0.2,2.1,0.5c0.6,0.3,1.1,0.8,1.5,1.4c0.4,0.6,0.5,1.3,0.5,2c0,0.7-0.2,1.4-0.5,2
		c-0.4,0.6-0.8,1.1-1.5,1.4c-0.6,0.3-1.3,0.5-2.1,0.5C110,56,109.3,55.8,108.7,55.5z M112.3,54.6c0.4-0.3,0.8-0.6,1.1-1.1
		c0.3-0.4,0.4-1,0.4-1.5c0-0.6-0.1-1.1-0.4-1.5c-0.3-0.4-0.6-0.8-1.1-1.1c-0.4-0.3-1-0.4-1.5-0.4c-0.6,0-1.1,0.1-1.5,0.4
		c-0.5,0.3-0.8,0.6-1.1,1.1c-0.3,0.4-0.4,1-0.4,1.5c0,0.6,0.1,1.1,0.4,1.5c0.3,0.4,0.6,0.8,1.1,1.1c0.5,0.3,1,0.4,1.5,0.4
		C111.3,55,111.8,54.9,112.3,54.6z M111.4,46.2h1.3l-1.8,1.4h-1L111.4,46.2z"/>
	<path fill="#FFFFFF" d="M116.1,52.4h3v0.9h-3V52.4z"/>
	<path fill="#FFFFFF" d="M125.9,55.9l-1.7-2.4c-0.2,0-0.4,0-0.5,0h-1.9v2.3h-1.1v-7.7h3c1,0,1.8,0.2,2.3,0.7s0.9,1.1,0.9,2
		c0,0.6-0.1,1.1-0.4,1.5c-0.3,0.4-0.7,0.7-1.3,0.9l1.8,2.6H125.9z M125.3,52.2c0.4-0.3,0.5-0.7,0.5-1.3c0-0.6-0.2-1-0.5-1.3
		c-0.4-0.3-0.9-0.4-1.6-0.4h-1.9v3.5h1.9C124.4,52.6,125,52.5,125.3,52.2z"/>
	<path fill="#FFFFFF" d="M134.3,54.9v1h-5.6v-7.7h5.4v1h-4.3v2.4h3.8v0.9h-3.8v2.5H134.3z"/>
	<path fill="#FFFFFF" d="M136.1,48.2h1.1v7.7h-1.1V48.2z"/>
	<path fill="#FFFFFF" d="M141,49.2h-2.6v-1h6.4v1h-2.6v6.7H141V49.2z"/>
	<path fill="#FFFFFF" d="M147.2,55.5c-0.6-0.3-1.1-0.8-1.5-1.4c-0.4-0.6-0.5-1.3-0.5-2s0.2-1.4,0.5-2c0.4-0.6,0.8-1.1,1.5-1.4
		s1.3-0.5,2.1-0.5c0.8,0,1.5,0.2,2.1,0.5s1.1,0.8,1.5,1.4c0.4,0.6,0.5,1.3,0.5,2c0,0.7-0.2,1.4-0.5,2c-0.4,0.6-0.8,1.1-1.5,1.4
		c-0.6,0.3-1.3,0.5-2.1,0.5C148.5,56,147.8,55.8,147.2,55.5z M150.8,54.6c0.4-0.3,0.8-0.6,1.1-1.1c0.3-0.4,0.4-1,0.4-1.5
		c0-0.6-0.1-1.1-0.4-1.5c-0.3-0.4-0.6-0.8-1.1-1.1c-0.4-0.3-1-0.4-1.5-0.4c-0.6,0-1.1,0.1-1.5,0.4c-0.5,0.3-0.8,0.6-1.1,1.1
		c-0.3,0.4-0.4,1-0.4,1.5c0,0.6,0.1,1.1,0.4,1.5c0.3,0.4,0.6,0.8,1.1,1.1c0.5,0.3,1,0.4,1.5,0.4C149.9,55,150.4,54.9,150.8,54.6z"/>
	<path fill="#FFFFFF" d="M160.2,55.9l-1.7-2.4c-0.2,0-0.4,0-0.5,0h-1.9v2.3H155v-7.7h3c1,0,1.8,0.2,2.3,0.7c0.6,0.5,0.9,1.1,0.9,2
		c0,0.6-0.1,1.1-0.4,1.5c-0.3,0.4-0.7,0.7-1.3,0.9l1.8,2.6H160.2z M159.6,52.2c0.4-0.3,0.5-0.7,0.5-1.3c0-0.6-0.2-1-0.5-1.3
		c-0.4-0.3-0.9-0.4-1.6-0.4h-1.9v3.5h1.9C158.7,52.6,159.2,52.5,159.6,52.2z"/>
	<path fill="#FFFFFF" d="M163,48.2h1.1v7.7H163V48.2z"/>
	<path fill="#FFFFFF" d="M171.3,54h-4.1l-0.8,1.9h-1.1l3.5-7.7h1.1l3.5,7.7h-1.2L171.3,54z M170.9,53.1l-1.7-3.8l-1.7,3.8H170.9z"/>
	<path fill="#FFFFFF" d="M177.4,48.2h3.2c0.8,0,1.5,0.2,2.2,0.5c0.6,0.3,1.1,0.8,1.5,1.4c0.3,0.6,0.5,1.2,0.5,2c0,0.8-0.2,1.4-0.5,2
		s-0.8,1-1.5,1.4c-0.6,0.3-1.3,0.5-2.2,0.5h-3.2V48.2z M180.6,54.9c0.6,0,1.2-0.1,1.6-0.4c0.5-0.2,0.8-0.6,1.1-1
		c0.3-0.4,0.4-0.9,0.4-1.5s-0.1-1.1-0.4-1.5c-0.3-0.4-0.6-0.8-1.1-1c-0.5-0.2-1-0.4-1.6-0.4h-2.1v5.8H180.6z"/>
	<path fill="#FFFFFF" d="M192,54.9v1h-5.6v-7.7h5.4v1h-4.3v2.4h3.8v0.9h-3.8v2.5H192z"/>
	<path fill="#FFFFFF" d="M202.1,52h1.1v3c-0.4,0.3-0.8,0.6-1.3,0.7c-0.5,0.2-1,0.3-1.6,0.3c-0.8,0-1.5-0.2-2.1-0.5
		c-0.6-0.3-1.1-0.8-1.5-1.4c-0.4-0.6-0.5-1.3-0.5-2c0-0.7,0.2-1.4,0.5-2c0.4-0.6,0.8-1.1,1.5-1.4c0.6-0.3,1.3-0.5,2.1-0.5
		c0.6,0,1.2,0.1,1.7,0.3c0.5,0.2,0.9,0.5,1.3,0.9l-0.7,0.7c-0.6-0.6-1.4-0.9-2.2-0.9c-0.6,0-1.1,0.1-1.6,0.4
		c-0.5,0.3-0.8,0.6-1.1,1.1c-0.3,0.4-0.4,1-0.4,1.5c0,0.6,0.1,1.1,0.4,1.5c0.3,0.4,0.6,0.8,1.1,1.1c0.5,0.3,1,0.4,1.6,0.4
		c0.7,0,1.3-0.2,1.8-0.5V52z"/>
	<path fill="#FFFFFF" d="M210.4,55.9l-1.7-2.4c-0.2,0-0.4,0-0.5,0h-1.9v2.3h-1.1v-7.7h3c1,0,1.8,0.2,2.3,0.7s0.9,1.1,0.9,2
		c0,0.6-0.1,1.1-0.4,1.5c-0.3,0.4-0.7,0.7-1.3,0.9l1.8,2.6H210.4z M209.8,52.2c0.4-0.3,0.5-0.7,0.5-1.3c0-0.6-0.2-1-0.5-1.3
		c-0.4-0.3-0.9-0.4-1.6-0.4h-1.9v3.5h1.9C208.9,52.6,209.4,52.5,209.8,52.2z"/>
	<path fill="#FFFFFF" d="M218.1,54H214l-0.8,1.9H212l3.5-7.7h1.1l3.5,7.7h-1.2L218.1,54z M217.7,53.1l-1.7-3.8l-1.7,3.8H217.7z"/>
	<path fill="#FFFFFF" d="M221.2,48.2h3.2c0.8,0,1.5,0.2,2.2,0.5c0.6,0.3,1.1,0.8,1.5,1.4c0.3,0.6,0.5,1.2,0.5,2c0,0.8-0.2,1.4-0.5,2
		c-0.3,0.6-0.8,1-1.5,1.4c-0.6,0.3-1.3,0.5-2.2,0.5h-3.2V48.2z M224.4,54.9c0.6,0,1.2-0.1,1.6-0.4c0.5-0.2,0.8-0.6,1.1-1
		c0.3-0.4,0.4-0.9,0.4-1.5s-0.1-1.1-0.4-1.5c-0.3-0.4-0.6-0.8-1.1-1c-0.5-0.2-1-0.4-1.6-0.4h-2.1v5.8H224.4z"/>
	<path fill="#FFFFFF" d="M231.1,55.1c-0.6-0.6-0.9-1.4-0.9-2.5v-4.4h1.1v4.3c0,1.6,0.7,2.5,2.2,2.5c0.7,0,1.2-0.2,1.6-0.6
		c0.4-0.4,0.6-1,0.6-1.9v-4.3h1.1v4.4c0,1.1-0.3,1.9-0.9,2.5c-0.6,0.6-1.4,0.9-2.4,0.9S231.6,55.7,231.1,55.1z"/>
	<path fill="#FFFFFF" d="M243.7,54h-4.1l-0.8,1.9h-1.1l3.5-7.7h1.1l3.5,7.7h-1.2L243.7,54z M243.3,53.1l-1.7-3.8l-1.7,3.8H243.3z"/>
	<path fill="#FFFFFF" d="M248.1,55.5c-0.6-0.3-1.1-0.8-1.5-1.4c-0.4-0.6-0.5-1.3-0.5-2c0-0.7,0.2-1.4,0.5-2c0.4-0.6,0.8-1.1,1.5-1.4
		s1.3-0.5,2.1-0.5c0.6,0,1.1,0.1,1.6,0.3c0.5,0.2,0.9,0.5,1.3,0.9l-0.7,0.7c-0.6-0.6-1.3-0.9-2.2-0.9c-0.6,0-1.1,0.1-1.5,0.4
		c-0.5,0.3-0.8,0.6-1.1,1.1c-0.3,0.4-0.4,1-0.4,1.5c0,0.6,0.1,1.1,0.4,1.5c0.3,0.4,0.6,0.8,1.1,1.1c0.5,0.3,1,0.4,1.5,0.4
		c0.9,0,1.6-0.3,2.2-0.9l0.7,0.7c-0.4,0.4-0.8,0.7-1.3,0.9c-0.5,0.2-1.1,0.3-1.7,0.3C249.4,56,248.7,55.8,248.1,55.5z M248.7,58.1
		l0.2-0.5c0.2,0.1,0.5,0.2,0.7,0.2c0.4,0,0.6-0.1,0.6-0.4c0-0.1-0.1-0.2-0.2-0.3c-0.1-0.1-0.3-0.1-0.5-0.1h-0.3l0.3-1.1h0.6
		l-0.2,0.6c0.3,0,0.5,0.1,0.7,0.3c0.2,0.2,0.2,0.4,0.2,0.6c0,0.3-0.1,0.6-0.4,0.7c-0.2,0.2-0.6,0.3-1,0.3
		C249.3,58.4,249,58.3,248.7,58.1z"/>
	<path fill="#FFFFFF" d="M259.3,54h-4.1l-0.8,1.9h-1.1l3.5-7.7h1.1l3.5,7.7h-1.2L259.3,54z M257.6,47.5c-0.1-0.1-0.3-0.2-0.5-0.3
		c-0.1-0.1-0.2-0.2-0.3-0.2c-0.1,0-0.2-0.1-0.2-0.1c-0.2,0-0.3,0.1-0.4,0.2c-0.1,0.1-0.2,0.3-0.2,0.5h-0.6c0-0.4,0.1-0.7,0.3-1
		c0.2-0.2,0.4-0.4,0.8-0.4c0.2,0,0.3,0,0.5,0.1c0.1,0.1,0.3,0.2,0.5,0.3c0.1,0.1,0.2,0.2,0.3,0.2c0.1,0,0.1,0.1,0.2,0.1
		c0.2,0,0.3-0.1,0.4-0.2c0.1-0.1,0.2-0.3,0.2-0.5h0.6c0,0.4-0.1,0.7-0.3,0.9c-0.2,0.2-0.4,0.4-0.8,0.4
		C257.9,47.6,257.8,47.5,257.6,47.5z M259,53.1l-1.7-3.8l-1.7,3.8H259z"/>
	<path fill="#FFFFFF" d="M263.7,55.5c-0.6-0.3-1.1-0.8-1.5-1.4c-0.4-0.6-0.5-1.3-0.5-2s0.2-1.4,0.5-2c0.4-0.6,0.8-1.1,1.5-1.4
		s1.3-0.5,2.1-0.5c0.8,0,1.5,0.2,2.1,0.5c0.6,0.3,1.1,0.8,1.5,1.4c0.4,0.6,0.5,1.3,0.5,2c0,0.7-0.2,1.4-0.5,2
		c-0.4,0.6-0.8,1.1-1.5,1.4c-0.6,0.3-1.3,0.5-2.1,0.5C265.1,56,264.4,55.8,263.7,55.5z M267.4,54.6c0.5-0.3,0.8-0.6,1.1-1.1
		c0.3-0.4,0.4-1,0.4-1.5c0-0.6-0.1-1.1-0.4-1.5c-0.3-0.4-0.6-0.8-1.1-1.1c-0.4-0.3-1-0.4-1.5-0.4c-0.6,0-1.1,0.1-1.5,0.4
		c-0.5,0.3-0.8,0.6-1.1,1.1c-0.3,0.4-0.4,1-0.4,1.5c0,0.6,0.1,1.1,0.4,1.5c0.3,0.4,0.6,0.8,1.1,1.1c0.5,0.3,1,0.4,1.5,0.4
		C266.4,55,266.9,54.9,267.4,54.6z"/>
</g>
<g>
	<g>
		<g>
			<path fill-rule="evenodd" clip-rule="evenodd" fill="#FFFFFF" d="M0.2,32.2c0,1.8,0.1,3.2,0.8,4.3c1.1,1.7,3.3,2.8,5.9,2.8
				s4.8-1.1,5.9-2.8c0.7-1.1,0.9-2.5,0.9-4.3v-8H8.4v8c0,1.5-0.3,2.4-1.5,2.4c-1.2,0-1.5-0.9-1.5-2.4v-8H0.2V32.2L0.2,32.2z"/>
		</g>
		<g>
			<polygon fill-rule="evenodd" clip-rule="evenodd" fill="#FFFFFF" points="16.4,38.9 21.6,38.9 21.6,33.6 25.8,33.6 25.8,29.9 
				21.6,29.9 21.6,28.2 26.2,28.2 26.2,24.2 16.4,24.2 16.4,38.9 			"/>
		</g>
		<g>
			<g>
				<path fill-rule="evenodd" clip-rule="evenodd" fill="#FFFFFF" d="M28.3,38.9h5.2V34l2.6,4.9H42l-3.9-6c1.7-0.2,2.8-1.7,2.8-3.8
					c0-3.1-2-5-5.9-5h-6.6V38.9L28.3,38.9z M33.5,28h0.8c1,0,1.6,0.6,1.6,1.5s-0.6,1.4-1.6,1.4h-0.8V28L33.5,28z"/>
			</g>
		</g>
		<g>
			<path fill-rule="evenodd" clip-rule="evenodd" fill="#FFFFFF" d="M52.9,33.6c-0.1,0.8-0.8,1.2-1.8,1.2c-1.7,0-2.7-1.2-2.7-3.3
				c0-2.1,1.1-3.3,2.6-3.3c0.9,0,1.6,0.4,2.1,1.2l4.7-1.7c-1.5-2.5-3.9-3.9-6.9-3.9c-2.2,0-4.2,0.8-5.6,2.2
				c-1.4,1.4-2.2,3.3-2.2,5.5c0,2.2,0.8,4.1,2.2,5.5c1.5,1.4,3.4,2.2,5.6,2.2c2.6,0,4.9-1.1,6.4-3c1-1.4,1.5-3,1.5-5
				c0-0.3,0-0.7,0-1.1h-8.1v3.5H52.9L52.9,33.6z"/>
		</g>
		<g>
			<path fill-rule="evenodd" clip-rule="evenodd" fill="#FFFFFF" d="M60.1,37.6c1.9,1.1,3.8,1.7,5.8,1.7c3.8,0,6.4-2.4,6.4-5.5
				c0-2.1-1.3-3.5-3.3-4c-1.7-0.4-2.7-0.5-2.7-1.2c0-0.4,0.4-0.7,1.2-0.7c0.9,0,2,0.4,3,1.2l1.6-3.8c-1.7-0.9-3.3-1.3-5-1.3
				c-3.7,0-6.2,2.3-6.2,5.4c0,2.1,1.3,3.5,3.8,4.1c1.2,0.3,2,0.3,2,1c0,0.5-0.4,0.8-1.2,0.8c-1.1,0-2.3-0.6-3.7-1.5L60.1,37.6
				L60.1,37.6z"/>
		</g>
		<path fill-rule="evenodd" clip-rule="evenodd" fill="#FFFFFF" d="M21.8,18.7h11.8h11.8c-3.9,1.6-7.9,2.6-11.8,2.5
			C29.6,21.3,25.7,20.3,21.8,18.7L21.8,18.7z"/>
		<path fill-rule="evenodd" clip-rule="evenodd" fill="#FFFFFF" d="M31.4,23.4c0.5,0,0.8-0.4,0.8-0.8c0-0.5-0.4-0.8-0.8-0.8
			c-0.5,0-0.8,0.4-0.8,0.8C30.5,23,30.9,23.4,31.4,23.4L31.4,23.4z"/>
		<path fill-rule="evenodd" clip-rule="evenodd" fill="#FFFFFF" d="M33.6,23.4c0.5,0,0.8-0.4,0.8-0.8c0-0.5-0.4-0.8-0.8-0.8
			c-0.5,0-0.8,0.4-0.8,0.8C32.7,23,33.1,23.4,33.6,23.4L33.6,23.4z"/>
		<path fill-rule="evenodd" clip-rule="evenodd" fill="#FFFFFF" d="M35.8,23.4c0.5,0,0.8-0.4,0.8-0.8c0-0.5-0.4-0.8-0.8-0.8
			c-0.5,0-0.8,0.4-0.8,0.8C34.9,23,35.3,23.4,35.8,23.4L35.8,23.4z"/>
		<path fill-rule="evenodd" clip-rule="evenodd" fill="#FFFFFF" d="M32.9,18.3c0.6-1.9-0.1-3.8-2.6-5.4c-1.8-1.1-2.9-3.1-3-5.9
			c-0.1-1.6,0.6-3.1,2.2-4.7c2.2-2.2,4.8-2.7,7.8-1.6c-2.7,1.1-4.2,3-4.4,5.5c0,1.9,0.9,3,2,4.1c0.9,1.3,1.4,2.5,1.5,3.8
			C36.1,16.2,34.9,17.8,32.9,18.3L32.9,18.3z"/>
		<path fill-rule="evenodd" clip-rule="evenodd" fill="#FFFFFF" d="M26.7,6.9c-1.5,0.7-2.8,2.3-2.8,4.7c0,1.7,1,3,2.3,3.9
			c1,0.7,2.2,0.9,3.7,0.9c1,0,1.9,0.8,2.6,1.9c0.2-1.1,0.2-2.4-0.9-3.4c-0.9-0.8-2.2-1.2-3.5-1.7C26.4,12.5,25.9,9.9,26.7,6.9
			L26.7,6.9z"/>
		<path fill-rule="evenodd" clip-rule="evenodd" fill="#FFFFFF" d="M40.2,4.6c-3.1-0.4-4.7,1.9-4.7,3.6c0,2.4,2.2,3.1,2.1,5.6
			c0,1.5-0.6,3.2-3.2,4.5c5-0.1,7.1-3.4,7-6.4c-0.1-3.1-2.8-3.2-2.8-5.4C38.5,5.6,39,5.1,40.2,4.6L40.2,4.6z"/>
		<g>
			<path fill-rule="evenodd" clip-rule="evenodd" fill="#FFFFFF" d="M0.2,45.3v2.4c0,0.7,0,1.2,0.4,1.6c0.3,0.4,0.8,0.5,1.6,0.5
				c1.4,0,2-0.6,2-1.9v-2.6H2.9v2.1c0,1,0,1.4-0.8,1.4c-0.6,0-0.8-0.3-0.8-1.1v-2.4H0.2L0.2,45.3z"/>
		</g>
		<g>
			<path fill-rule="evenodd" clip-rule="evenodd" fill="#FFFFFF" d="M4.8,49.7H6v-2.2c0-0.2,0-0.5-0.1-0.9c0.2,0.5,0.4,0.7,0.4,0.8
				L8,49.7h1.2v-4.5H8v2.2c0,0.2,0,0.5,0.1,0.9c-0.2-0.5-0.4-0.7-0.4-0.8L6,45.3H4.8V49.7L4.8,49.7z"/>
		</g>
		<g>
			<polygon fill-rule="evenodd" clip-rule="evenodd" fill="#FFFFFF" points="9.9,49.7 11.2,49.7 11.2,45.3 9.9,45.3 9.9,49.7 			"/>
		</g>
		<g>
			<path fill-rule="evenodd" clip-rule="evenodd" fill="#FFFFFF" d="M13.2,49.7h0.9l1.9-4.5h-1.3l-0.9,2.5c0,0-0.1,0.2-0.2,0.6
				c-0.1-0.3-0.1-0.5-0.1-0.6l-0.9-2.5h-1.3L13.2,49.7L13.2,49.7z"/>
		</g>
		<g>
			<polygon fill-rule="evenodd" clip-rule="evenodd" fill="#FFFFFF" points="16.1,49.7 18.8,49.7 18.8,48.7 17.3,48.7 17.3,48 
				18.7,48 18.7,47 17.3,47 17.3,46.2 18.8,46.2 18.8,45.3 16.1,45.3 16.1,49.7 			"/>
		</g>
		<g>
			<g>
				<path fill-rule="evenodd" clip-rule="evenodd" fill="#FFFFFF" d="M20.5,47.4v-1.2h0.2c0.5,0,0.7,0.1,0.7,0.6
					c0,0.4-0.2,0.6-0.8,0.6H20.5L20.5,47.4z M19.4,49.7h1.1V48l1,1.7h1.4l-1.2-1.8c0.6-0.1,1-0.6,1-1.3c0-0.5-0.2-0.8-0.5-1.1
					c-0.4-0.3-0.9-0.3-1.5-0.3h-1.3V49.7L19.4,49.7z"/>
			</g>
		</g>
		<g>
			<path fill-rule="evenodd" clip-rule="evenodd" fill="#FFFFFF" d="M23.4,48.3l-0.5,0.9c0.5,0.5,1,0.7,1.6,0.7c1,0,1.7-0.6,1.7-1.6
				c0-0.8-0.4-1.1-1.2-1.3c-0.4-0.1-0.7-0.2-0.7-0.5c0-0.2,0.2-0.4,0.5-0.4c0.3,0,0.6,0.1,0.9,0.4l0.4-0.9c-0.4-0.3-0.8-0.4-1.3-0.4
				c-0.9,0-1.5,0.6-1.5,1.4c0,0.7,0.4,1,1.2,1.2c0.5,0.1,0.7,0.2,0.7,0.6c0,0.3-0.2,0.5-0.6,0.5C24.1,48.9,23.7,48.7,23.4,48.3
				L23.4,48.3z"/>
		</g>
		<g>
			<polygon fill-rule="evenodd" clip-rule="evenodd" fill="#FFFFFF" points="26.6,49.7 27.8,49.7 27.8,45.3 26.6,45.3 26.6,49.7 			
				"/>
		</g>
		<g>
			<g>
				<path fill-rule="evenodd" clip-rule="evenodd" fill="#FFFFFF" d="M29.8,48.7v-2.5H30c0.9,0,1.4,0.3,1.4,1.2
					c0,0.9-0.4,1.2-1.4,1.2H29.8L29.8,48.7z M28.6,49.7h1.2c0.7,0,1.4,0,1.9-0.4c0.6-0.4,0.9-1,0.9-1.8c0-0.8-0.3-1.4-0.9-1.8
					c-0.6-0.4-1.3-0.4-2.1-0.4h-1.1V49.7L28.6,49.7z"/>
			</g>
		</g>
		<g>
			<g>
				<path fill-rule="evenodd" clip-rule="evenodd" fill="#FFFFFF" d="M32.5,49.7h1.2l0.2-0.8h1.7l0.2,0.8h1.2l-1.5-4.5H34L32.5,49.7
					L32.5,49.7z M34.2,48l0.4-1.5c0-0.1,0.1-0.3,0.2-0.6c0.1,0.3,0.1,0.5,0.1,0.6l0.5,1.5H34.2L34.2,48z"/>
			</g>
		</g>
		<g>
			<g>
				<path fill-rule="evenodd" clip-rule="evenodd" fill="#FFFFFF" d="M38.4,48.7v-2.5h0.2c0.9,0,1.4,0.3,1.4,1.2
					c0,0.9-0.4,1.2-1.4,1.2H38.4L38.4,48.7z M37.2,49.7h1.2c0.7,0,1.4,0,1.9-0.4c0.6-0.4,0.9-1,0.9-1.8c0-0.8-0.3-1.4-0.9-1.8
					c-0.6-0.4-1.3-0.4-2.1-0.4h-1.1V49.7L37.2,49.7z"/>
			</g>
		</g>
		<g>
			<polygon fill-rule="evenodd" clip-rule="evenodd" fill="#FFFFFF" points="41.8,49.7 44.5,49.7 44.5,48.7 43,48.7 43,48 44.4,48 
				44.4,47 43,47 43,46.2 44.5,46.2 44.5,45.3 41.8,45.3 41.8,49.7 			"/>
		</g>
		<g>
			<polygon fill-rule="evenodd" clip-rule="evenodd" fill="#FFFFFF" points="47,49.7 48.2,49.7 48.2,48 49.7,48 49.7,47 48.2,47 
				48.2,46.2 49.8,46.2 49.8,45.3 47,45.3 47,49.7 			"/>
		</g>
		<g>
			<polygon fill-rule="evenodd" clip-rule="evenodd" fill="#FFFFFF" points="50.2,49.7 52.9,49.7 52.9,48.7 51.4,48.7 51.4,48 
				52.8,48 52.8,47 51.4,47 51.4,46.2 52.9,46.2 52.9,45.3 50.2,45.3 50.2,49.7 			"/>
		</g>
		<g>
			<g>
				<path fill-rule="evenodd" clip-rule="evenodd" fill="#FFFFFF" d="M54.7,48.7v-2.5h0.2c0.9,0,1.4,0.3,1.4,1.2
					c0,0.9-0.4,1.2-1.4,1.2H54.7L54.7,48.7z M53.5,49.7h1.2c0.7,0,1.4,0,1.9-0.4c0.6-0.4,0.9-1,0.9-1.8c0-0.8-0.3-1.4-0.9-1.8
					c-0.6-0.4-1.3-0.4-2.1-0.4h-1.1V49.7L53.5,49.7z"/>
			</g>
		</g>
		<g>
			<polygon fill-rule="evenodd" clip-rule="evenodd" fill="#FFFFFF" points="58,49.7 60.8,49.7 60.8,48.7 59.2,48.7 59.2,48 
				60.7,48 60.7,47 59.2,47 59.2,46.2 60.8,46.2 60.8,45.3 58,45.3 58,49.7 			"/>
		</g>
		<g>
			<g>
				<path fill-rule="evenodd" clip-rule="evenodd" fill="#FFFFFF" d="M62.5,47.4v-1.2h0.2c0.5,0,0.7,0.1,0.7,0.6
					c0,0.4-0.2,0.6-0.8,0.6H62.5L62.5,47.4z M61.3,49.7h1.1V48l1,1.7h1.4l-1.2-1.8c0.6-0.1,1-0.6,1-1.3c0-0.5-0.2-0.8-0.5-1.1
					c-0.4-0.3-0.9-0.3-1.5-0.3h-1.3V49.7L61.3,49.7z"/>
			</g>
		</g>
		<g>
			<g>
				<path fill-rule="evenodd" clip-rule="evenodd" fill="#FFFFFF" d="M64.6,49.7h1.2l0.2-0.8h1.7l0.2,0.8h1.2l-1.5-4.5h-1.5
					L64.6,49.7L64.6,49.7z M66.3,48l0.4-1.5c0-0.1,0.1-0.3,0.2-0.6c0.1,0.3,0.1,0.5,0.1,0.6l0.5,1.5H66.3L66.3,48z"/>
			</g>
		</g>
		<g>
			<polygon fill-rule="evenodd" clip-rule="evenodd" fill="#FFFFFF" points="69.4,49.7 72.1,49.7 72.1,48.7 70.6,48.7 70.6,45.3 
				69.4,45.3 69.4,49.7 			"/>
		</g>
		<g>
			<g>
				<path fill-rule="evenodd" clip-rule="evenodd" fill="#FFFFFF" d="M1.4,54.8v-2.5h0.2c0.9,0,1.4,0.3,1.4,1.2
					c0,0.9-0.4,1.2-1.4,1.2H1.4L1.4,54.8z M0.2,55.8h1.2c0.7,0,1.4,0,1.9-0.4c0.6-0.4,0.9-1,0.9-1.8c0-0.8-0.3-1.4-0.9-1.8
					c-0.6-0.4-1.3-0.4-2.1-0.4H0.2V55.8L0.2,55.8z"/>
			</g>
		</g>
		<g>
			<g>
				<path fill-rule="evenodd" clip-rule="evenodd" fill="#FFFFFF" d="M6.8,54.9c-0.7,0-1.2-0.6-1.2-1.3c0-0.7,0.5-1.3,1.2-1.3
					c0.7,0,1.2,0.6,1.2,1.3C7.9,54.3,7.5,54.9,6.8,54.9L6.8,54.9z M9.2,53.6c0-0.6-0.2-1.2-0.7-1.7c-0.4-0.4-1.1-0.7-1.7-0.7
					S5.5,51.5,5.1,52c-0.5,0.4-0.7,1-0.7,1.7c0,0.7,0.3,1.4,0.9,1.8c0.4,0.3,1,0.5,1.5,0.5c0.6,0,1.2-0.2,1.7-0.7
					C8.9,54.8,9.2,54.3,9.2,53.6L9.2,53.6z"/>
			</g>
		</g>
		<g>
			<g>
				<path fill-rule="evenodd" clip-rule="evenodd" fill="#FFFFFF" d="M12.6,53.5v-1.2h0.2c0.5,0,0.7,0.1,0.7,0.6
					c0,0.4-0.2,0.6-0.8,0.6H12.6L12.6,53.5z M11.5,55.8h1.1v-1.7l1,1.7H15L13.8,54c0.6-0.1,1-0.6,1-1.3c0-0.5-0.2-0.8-0.5-1.1
					c-0.4-0.3-0.9-0.3-1.5-0.3h-1.3V55.8L11.5,55.8z"/>
			</g>
		</g>
		<g>
			<polygon fill-rule="evenodd" clip-rule="evenodd" fill="#FFFFFF" points="15.1,55.8 16.4,55.8 16.4,51.4 15.1,51.4 15.1,55.8 			
				"/>
		</g>
		<g>
			<g>
				<path fill-rule="evenodd" clip-rule="evenodd" fill="#FFFFFF" d="M19.1,54.9c-0.7,0-1.2-0.6-1.2-1.3c0-0.7,0.5-1.3,1.2-1.3
					c0.7,0,1.2,0.6,1.2,1.3C20.3,54.3,19.8,54.9,19.1,54.9L19.1,54.9z M21.5,53.6c0-0.6-0.2-1.2-0.7-1.7c-0.4-0.4-1.1-0.7-1.7-0.7
					c-0.6,0-1.2,0.2-1.7,0.7c-0.5,0.4-0.7,1-0.7,1.7c0,0.7,0.3,1.4,0.9,1.8c0.4,0.3,1,0.5,1.5,0.5c0.6,0,1.2-0.2,1.7-0.7
					C21.3,54.8,21.5,54.3,21.5,53.6L21.5,53.6z"/>
			</g>
		</g>
		<g>
			<path fill-rule="evenodd" clip-rule="evenodd" fill="#FFFFFF" d="M26,54.2h1.2C27.1,54.7,26.7,55,26,55c-0.7,0-1.2-0.5-1.2-1.4
				c0-0.9,0.5-1.4,1.2-1.4c0.4,0,0.7,0.2,1,0.5l1.1-0.5c-0.5-0.7-1.1-1-2-1c-1.4,0-2.4,1-2.4,2.3c0,0.6,0.2,1.2,0.7,1.7
				c0.4,0.5,1,0.7,1.7,0.7c1.4,0,2.3-0.9,2.3-2.4c0-0.1,0-0.2,0-0.3H26V54.2L26,54.2z"/>
		</g>
		<g>
			<g>
				<path fill-rule="evenodd" clip-rule="evenodd" fill="#FFFFFF" d="M29.9,53.5v-1.2h0.2c0.5,0,0.7,0.1,0.7,0.6
					c0,0.4-0.2,0.6-0.8,0.6H29.9L29.9,53.5z M28.7,55.8h1.1v-1.7l1,1.7h1.4L31,54c0.6-0.1,1-0.6,1-1.3c0-0.5-0.2-0.8-0.5-1.1
					c-0.4-0.3-0.9-0.3-1.5-0.3h-1.3V55.8L28.7,55.8z"/>
			</g>
		</g>
		<g>
			<g>
				<path fill-rule="evenodd" clip-rule="evenodd" fill="#FFFFFF" d="M31.8,55.8H33l0.2-0.8H35l0.2,0.8h1.2l-1.5-4.5h-1.5L31.8,55.8
					L31.8,55.8z M33.5,54.2l0.4-1.5c0-0.1,0.1-0.3,0.2-0.6c0.1,0.3,0.1,0.5,0.1,0.6l0.5,1.5H33.5L33.5,54.2z"/>
			</g>
		</g>
		<g>
			<path fill-rule="evenodd" clip-rule="evenodd" fill="#FFFFFF" d="M36.5,55.8h1.2v-2.2c0-0.2,0-0.5-0.1-0.9
				c0.2,0.5,0.4,0.7,0.4,0.8l1.7,2.3h1.2v-4.5h-1.2v2.2c0,0.2,0,0.5,0.1,0.9c-0.2-0.5-0.4-0.7-0.4-0.8l-1.7-2.3h-1.2V55.8L36.5,55.8
				z"/>
		</g>
		<g>
			<g>
				<path fill-rule="evenodd" clip-rule="evenodd" fill="#FFFFFF" d="M42.6,54.8v-2.5h0.2c0.9,0,1.4,0.3,1.4,1.2
					c0,0.9-0.4,1.2-1.4,1.2H42.6L42.6,54.8z M41.4,55.8h1.2c0.7,0,1.4,0,1.9-0.4c0.6-0.4,0.9-1,0.9-1.8c0-0.8-0.3-1.4-0.9-1.8
					c-0.6-0.4-1.3-0.4-2.1-0.4h-1.1V55.8L41.4,55.8z"/>
			</g>
		</g>
		<g>
			<polygon fill-rule="evenodd" clip-rule="evenodd" fill="#FFFFFF" points="45.8,55.8 48.5,55.8 48.5,54.8 47,54.8 47,54.1 
				48.4,54.1 48.4,53.1 47,53.1 47,52.4 48.5,52.4 48.5,51.4 45.8,51.4 45.8,55.8 			"/>
		</g>
		<g>
			<g>
				<path fill-rule="evenodd" clip-rule="evenodd" fill="#FFFFFF" d="M52.1,54.8v-2.5h0.2c0.9,0,1.4,0.3,1.4,1.2
					c0,0.9-0.4,1.2-1.4,1.2H52.1L52.1,54.8z M50.9,55.8h1.2c0.7,0,1.4,0,1.9-0.4c0.6-0.4,0.9-1,0.9-1.8c0-0.8-0.3-1.4-0.9-1.8
					c-0.6-0.4-1.3-0.4-2.1-0.4h-1.1V55.8L50.9,55.8z"/>
			</g>
		</g>
		<g>
			<g>
				<path fill-rule="evenodd" clip-rule="evenodd" fill="#FFFFFF" d="M57.5,54.9c-0.7,0-1.2-0.6-1.2-1.3c0-0.7,0.5-1.3,1.2-1.3
					c0.7,0,1.2,0.6,1.2,1.3C58.6,54.3,58.2,54.9,57.5,54.9L57.5,54.9z M59.8,53.6c0-0.6-0.2-1.2-0.7-1.7c-0.4-0.4-1.1-0.7-1.7-0.7
					c-0.6,0-1.2,0.2-1.7,0.7c-0.5,0.4-0.7,1-0.7,1.7c0,0.7,0.3,1.4,0.9,1.8c0.4,0.3,1,0.5,1.5,0.5c0.6,0,1.2-0.2,1.7-0.7
					C59.6,54.8,59.8,54.3,59.8,53.6L59.8,53.6z"/>
			</g>
		</g>
		<g>
			<path fill-rule="evenodd" clip-rule="evenodd" fill="#FFFFFF" d="M62.4,54.4l-0.5,0.9c0.5,0.5,1,0.7,1.6,0.7c1,0,1.7-0.6,1.7-1.6
				c0-0.8-0.4-1.1-1.2-1.3c-0.4-0.1-0.7-0.2-0.7-0.5c0-0.2,0.2-0.4,0.5-0.4c0.3,0,0.6,0.1,0.9,0.4l0.4-0.9c-0.4-0.3-0.8-0.4-1.3-0.4
				c-0.9,0-1.5,0.6-1.5,1.4c0,0.7,0.4,1,1.2,1.2c0.5,0.1,0.7,0.2,0.7,0.6c0,0.3-0.2,0.5-0.6,0.5C63.1,55,62.7,54.8,62.4,54.4
				L62.4,54.4z"/>
		</g>
		<g>
			<path fill-rule="evenodd" clip-rule="evenodd" fill="#FFFFFF" d="M65.4,51.4v2.4c0,0.7,0,1.2,0.4,1.6c0.3,0.4,0.8,0.5,1.6,0.5
				c1.4,0,2-0.6,2-1.9v-2.6h-1.2v2.1c0,1,0,1.4-0.8,1.4c-0.6,0-0.8-0.3-0.8-1.1v-2.4H65.4L65.4,51.4z"/>
		</g>
		<g>
			<polygon fill-rule="evenodd" clip-rule="evenodd" fill="#FFFFFF" points="69.9,55.8 72.6,55.8 72.6,54.8 71.1,54.8 71.1,51.4 
				69.9,51.4 69.9,55.8 			"/>
		</g>
	</g>
</g>
<g>
	<rect x="81.4" y="15.8" fill="#FFFFFF" width="1.2" height="43.8"/>
</g>
</svg>
